<svg width="55" height="55" viewBox="0 0 55 55" fill="none" xmlns="http://www.w3.org/2000/svg">
<path d="M27.5 40.2136C30.3921 40.2136 32.8522 39.1997 34.8803 37.172C36.9081 35.1439 37.9219 32.6838 37.9219 29.7917C37.9219 26.8996 36.9081 24.4395 34.8803 22.4114C32.8522 20.3836 30.3921 19.3697 27.5 19.3697C24.6079 19.3697 22.1478 20.3836 20.1197 22.4114C18.0919 24.4395 17.0781 26.8996 17.0781 29.7917C17.0781 32.6838 18.0919 35.1439 20.1197 37.172C22.1478 39.1997 24.6079 40.2136 27.5 40.2136ZM27.5 35.2745C25.9596 35.2745 24.6608 34.7457 23.6036 33.6881C22.546 32.6309 22.0172 31.332 22.0172 29.7917C22.0172 28.2513 22.546 26.9525 23.6036 25.8953C24.6608 24.8377 25.9596 24.3089 27.5 24.3089C29.0404 24.3089 30.3392 24.8377 31.3964 25.8953C32.454 26.9525 32.9828 28.2513 32.9828 29.7917C32.9828 31.332 32.454 32.6309 31.3964 33.6881C30.3392 34.7457 29.0404 35.2745 27.5 35.2745ZM9.3311 48.5908C7.88811 48.5908 6.65844 48.0826 5.64209 47.0662C4.62573 46.0499 4.11755 44.8202 4.11755 43.3772V16.2061C4.11755 14.7631 4.62573 13.5334 5.64209 12.5171C6.65844 11.5007 7.88811 10.9926 9.3311 10.9926H16.1391L19.0306 7.99448C19.5057 7.49986 20.0712 7.11199 20.727 6.83088C21.3832 6.54977 22.0632 6.40922 22.7671 6.40922H32.2329C32.9368 6.40922 33.6168 6.54977 34.273 6.83088C34.9288 7.11199 35.4943 7.49986 35.9694 7.99448L38.8609 10.9926H45.6689C47.1119 10.9926 48.3416 11.5007 49.3579 12.5171C50.3743 13.5334 50.8825 14.7631 50.8825 16.2061V43.3772C50.8825 44.8202 50.3743 46.0499 49.3579 47.0662C48.3416 48.0826 47.1119 48.5908 45.6689 48.5908H9.3311Z" fill="#EADDFF"/>
</svg>
