<svg width="60" height="60" viewBox="0 0 60 60" fill="none" xmlns="http://www.w3.org/2000/svg">
<path d="M24.4839 7.80931C27.8043 5.39689 32.3004 5.3969 35.6209 7.80931L50.9883 18.9744C54.3087 21.3868 55.6981 25.663 54.4298 29.5663L48.56 47.6319C47.2917 51.5352 43.6542 54.178 39.55 54.178H20.5547C16.4505 54.178 12.813 51.5352 11.5447 47.6319L5.67489 29.5663C4.40661 25.663 5.796 21.3868 9.11641 18.9744L24.4839 7.80931Z" fill="#B3261E"/>
<path d="M40 35.5L36 31.5V33.175L24.825 22H34C34.55 22 35.0209 22.1958 35.4125 22.5875C35.8042 22.9792 36 23.45 36 24V28.5L40 24.5V35.5ZM38.55 41.35L18.65 21.45L20.05 20.05L39.95 39.95L38.55 41.35ZM22 22L36 36C36 36.55 35.8042 37.0208 35.4125 37.4125C35.0209 37.8042 34.55 38 34 38H22C21.45 38 20.9792 37.8042 20.5875 37.4125C20.1959 37.0208 20 36.55 20 36V24C20 23.45 20.1959 22.9792 20.5875 22.5875C20.9792 22.1958 21.45 22 22 22Z" fill="#F2B8B5"/>
</svg>
