<svg width="200" height="200" viewBox="0 0 200 200" fill="none" xmlns="http://www.w3.org/2000/svg">
<path d="M183.333 145.833L150 112.5V126.458L133.333 109.792V50H73.5417L56.875 33.3333H133.333C137.917 33.3333 141.84 34.9653 145.104 38.2292C148.368 41.4931 150 45.4167 150 50V87.5L183.333 54.1667V145.833ZM171.25 194.583L5.41669 28.75L17.0834 17.0833L182.917 182.917L171.25 194.583ZM33.3334 33.3333L50 50H33.3334V150H133.333V133.333L150 150C150 154.583 148.368 158.507 145.104 161.771C141.84 165.035 137.917 166.667 133.333 166.667H33.3334C28.75 166.667 24.8264 165.035 21.5625 161.771C18.2986 158.507 16.6667 154.583 16.6667 150V50C16.6667 45.4167 18.2986 41.4931 21.5625 38.2292C24.8264 34.9653 28.75 33.3333 33.3334 33.3333Z" fill="white"/>
</svg>
