<svg width="60" height="60" viewBox="0 0 60 60" fill="none" xmlns="http://www.w3.org/2000/svg">
<path d="M24.4839 7.80931C27.8043 5.39689 32.3004 5.3969 35.6209 7.80931L50.9883 18.9744C54.3087 21.3868 55.6981 25.663 54.4298 29.5663L48.56 47.6319C47.2917 51.5352 43.6542 54.178 39.55 54.178H20.5547C16.4505 54.178 12.813 51.5352 11.5447 47.6319L5.67489 29.5663C4.40661 25.663 5.796 21.3868 9.11641 18.9744L24.4839 7.80931Z" fill="#B3261E"/>
<path d="M35.75 32.95L34.3 31.5C34.5334 31.1167 34.7084 30.7167 34.825 30.3C34.9417 29.8833 35 29.45 35 29H37C37 29.7333 36.8917 30.4292 36.675 31.0875C36.4584 31.7458 36.15 32.3667 35.75 32.95ZM32.8 29.95L27 24.15V23C27 22.1667 27.2917 21.4583 27.875 20.875C28.4584 20.2917 29.1667 20 30 20C30.8334 20 31.5417 20.2917 32.125 20.875C32.7084 21.4583 33 22.1667 33 23V29C33 29.1833 32.9792 29.35 32.9375 29.5C32.8959 29.65 32.85 29.8 32.8 29.95ZM29 39V35.9C27.2667 35.6667 25.8334 34.8958 24.7 33.5875C23.5667 32.2792 23 30.75 23 29H25C25 30.3833 25.4875 31.5625 26.4625 32.5375C27.4375 33.5125 28.6167 34 30 34C30.5667 34 31.1042 33.9125 31.6125 33.7375C32.1209 33.5625 32.5834 33.3167 33 33L34.425 34.425C33.9417 34.8083 33.4125 35.1292 32.8375 35.3875C32.2625 35.6458 31.65 35.8167 31 35.9V39H29ZM37.8 40.6L19.4 22.2L20.8 20.8L39.2 39.2L37.8 40.6Z" fill="#F2B8B5"/>
</svg>
