<svg width="60" height="60" viewBox="0 0 60 60" fill="none" xmlns="http://www.w3.org/2000/svg">
<path d="M22.5269 8.17646C23.0909 7.67991 23.373 7.43164 23.6323 7.23084C27.3829 4.32656 32.6171 4.32656 36.3677 7.23084C36.627 7.43164 36.9091 7.67991 37.4731 8.17646C37.662 8.34271 37.7564 8.42584 37.8512 8.50535C39.1793 9.6197 40.7638 10.3845 42.4611 10.7304C42.5822 10.7551 42.706 10.7773 42.9534 10.8216C43.6924 10.954 44.0619 11.0202 44.3802 11.0982C48.9842 12.2265 52.2477 16.328 52.3207 21.0779C52.3257 21.4063 52.3079 21.7821 52.2722 22.5337C52.2603 22.7853 52.2543 22.9111 52.2514 23.035C52.2102 24.7705 52.6016 26.4889 53.39 28.0347C53.4462 28.145 53.5061 28.2558 53.6258 28.4773C53.9832 29.139 54.162 29.4698 54.2996 29.7678C56.29 34.0791 55.1253 39.1936 51.4657 42.2122C51.2127 42.4209 50.9084 42.6413 50.2999 43.082C50.0962 43.2295 49.9943 43.3033 49.8959 43.3782C48.5164 44.428 47.4199 45.8061 46.7057 47.3877C46.6547 47.5005 46.6056 47.6165 46.5074 47.8484C46.2142 48.5411 46.0676 48.8874 45.9209 49.1811C43.7989 53.4288 39.0831 55.705 34.4466 54.7193C34.1261 54.6512 33.7645 54.5502 33.0413 54.3481C32.7992 54.2804 32.6781 54.2466 32.5583 54.2162C30.8793 53.7897 29.1207 53.7897 27.4417 54.2162C27.3219 54.2466 27.2008 54.2804 26.9587 54.3481C26.2355 54.5502 25.874 54.6512 25.5534 54.7193C20.9169 55.705 16.2011 53.4288 14.0792 49.1811C13.9325 48.8874 13.7858 48.5411 13.4926 47.8484C13.3944 47.6165 13.3453 47.5005 13.2943 47.3877C12.5801 45.8061 11.4836 44.428 10.1042 43.3782C10.0057 43.3033 9.90386 43.2295 9.70011 43.082C9.0916 42.6413 8.78735 42.4209 8.53433 42.2122C4.87469 39.1936 3.70999 34.0791 5.70043 29.7678C5.83804 29.4698 6.01678 29.139 6.37426 28.4773C6.49395 28.2558 6.5538 28.145 6.61005 28.0347C7.39845 26.4889 7.78978 24.7705 7.74862 23.035C7.74568 22.9111 7.73971 22.7853 7.72778 22.5337C7.69213 21.7821 7.67431 21.4063 7.67935 21.0779C7.75235 16.328 11.0158 12.2265 15.6198 11.0982C15.9381 11.0202 16.3076 10.954 17.0466 10.8216C17.294 10.7773 17.4178 10.7551 17.5389 10.7304C19.2362 10.3845 20.8207 9.6197 22.1488 8.50535C22.2436 8.42584 22.338 8.34271 22.5269 8.17646Z" fill="#EADDFF"/>
<path d="M30 32C29.1667 32 28.4583 31.7083 27.875 31.125C27.2917 30.5417 27 29.8333 27 29V23C27 22.1667 27.2917 21.4583 27.875 20.875C28.4583 20.2917 29.1667 20 30 20C30.8333 20 31.5417 20.2917 32.125 20.875C32.7083 21.4583 33 22.1667 33 23V29C33 29.8333 32.7083 30.5417 32.125 31.125C31.5417 31.7083 30.8333 32 30 32ZM29 39V35.925C27.2667 35.6917 25.8333 34.9167 24.7 33.6C23.5667 32.2833 23 30.75 23 29H25C25 30.3833 25.4875 31.5625 26.4625 32.5375C27.4375 33.5125 28.6167 34 30 34C31.3833 34 32.5625 33.5125 33.5375 32.5375C34.5125 31.5625 35 30.3833 35 29H37C37 30.75 36.4333 32.2833 35.3 33.6C34.1667 34.9167 32.7333 35.6917 31 35.925V39H29ZM30 30C30.2833 30 30.5208 29.9042 30.7125 29.7125C30.9042 29.5208 31 29.2833 31 29V23C31 22.7167 30.9042 22.4792 30.7125 22.2875C30.5208 22.0958 30.2833 22 30 22C29.7167 22 29.4792 22.0958 29.2875 22.2875C29.0958 22.4792 29 22.7167 29 23V29C29 29.2833 29.0958 29.5208 29.2875 29.7125C29.4792 29.9042 29.7167 30 30 30Z" fill="#4A4458"/>
</svg>
