<svg xmlns="http://www.w3.org/2000/svg" height="24px" viewBox="0 -960 960 960" width="24px" fill="#e3e3e3"><path d="M396.17-840q-18.43 0-31.01-12.7-12.57-12.69-12.57-31.13 0-18.43 12.57-31.01 12.58-12.57 31.01-12.57h167.66q18.43 0 31.01 12.57 12.57 12.58 12.57 31.01 0 18.44-12.57 31.13-12.58 12.7-31.01 12.7H396.17Zm114.84 434.12q12.58-12.58 12.58-31.01v-153.54q0-18.44-12.58-31.02-12.58-12.57-31.01-12.57t-31.01 12.57q-12.58 12.58-12.58 31.02v153.54q0 18.43 12.58 31.01Q461.57-393.3 480-393.3t31.01-12.58ZM337.15-94.51q-66.93-29.1-117.01-79.05-50.07-49.96-79.17-116.9-29.1-66.93-29.1-142.84 0-75.92 29.1-142.85 29.1-66.94 79.17-117.01 50.08-50.08 117.01-79.18 66.94-29.09 142.85-29.09 62.48 0 120.43 20 57.96 20 108.2 58.23l28.24-28.23q12.43-12.44 30.75-12.44 18.31 0 30.75 12.44Q810.8-739 810.8-720.68q0 18.31-12.43 30.75l-28.24 28.23q38.24 50.24 58.12 108.08 19.88 57.84 19.88 120.32 0 75.91-29.1 142.84-29.1 66.94-79.17 116.9-50.08 49.95-117.01 79.05-66.94 29.1-142.85 29.1t-142.85-29.1Zm338.94-142.83q81.04-80.92 81.04-195.96 0-115.05-81.04-196.09-81.05-81.04-196.09-81.04t-196.09 81.04q-81.04 81.04-81.04 196.09 0 115.04 81.04 195.96 81.05 80.93 196.09 80.93t196.09-80.93ZM480-433.3Z"/></svg>