<svg width="55" height="44" viewBox="0 0 55 44" fill="none" xmlns="http://www.w3.org/2000/svg">
<path d="M6.13162 44C4.43453 44 2.98832 43.4053 1.79299 42.2159C0.597665 41.0265 0 39.5874 0 37.8988V6.10124C0 4.41256 0.597665 2.97352 1.79299 1.78411C2.98832 0.594702 4.43453 0 6.13162 0H38.0875C39.7846 0 41.2308 0.594702 42.4261 1.78411C43.6215 2.97352 44.2191 4.41256 44.2191 6.10124V17.9772L52.387 9.84982C52.8896 9.34965 53.4509 9.22718 54.0708 9.4824C54.6903 9.73807 55 10.2163 55 10.9172V33.0828C55 33.7837 54.6903 34.2619 54.0708 34.5176C53.4509 34.7728 52.8896 34.6504 52.387 34.1502L44.2191 26.0228V37.8988C44.2191 39.5874 43.6215 41.0265 42.4261 42.2159C41.2308 43.4053 39.7846 44 38.0875 44H6.13162Z" fill="#FFD8E4"/>
</svg>
